<mxfile host="app.diagrams.net" agent="Mozilla/5.0 (Windows NT 10.0; Win64; x64) AppleWebKit/537.36 (KHTML, like Gecko) Chrome/132.0.0.0 Safari/537.36 OPR/117.0.0.0" version="26.2.8">
  <diagram name="Página-1" id="wtBBaVm8VqS0fTDw6QUz">
    <mxGraphModel dx="833" dy="1622" grid="1" gridSize="10" guides="1" tooltips="1" connect="1" arrows="1" fold="1" page="1" pageScale="1" pageWidth="827" pageHeight="1169" math="0" shadow="0">
      <root>
        <mxCell id="0" />
        <mxCell id="1" parent="0" />
        <mxCell id="-oH_MTTWacPpwMCkbWbV-1" value="" style="edgeStyle=orthogonalEdgeStyle;rounded=0;orthogonalLoop=1;jettySize=auto;html=1;" edge="1" parent="1" source="-oH_MTTWacPpwMCkbWbV-2" target="-oH_MTTWacPpwMCkbWbV-4">
          <mxGeometry relative="1" as="geometry" />
        </mxCell>
        <mxCell id="-oH_MTTWacPpwMCkbWbV-2" value="Início" style="rounded=1;whiteSpace=wrap;html=1;fontSize=12;glass=0;strokeWidth=1;shadow=0;" vertex="1" parent="1">
          <mxGeometry x="425" y="-1060" width="60" height="40" as="geometry" />
        </mxCell>
        <mxCell id="-oH_MTTWacPpwMCkbWbV-3" value="" style="edgeStyle=orthogonalEdgeStyle;rounded=0;orthogonalLoop=1;jettySize=auto;html=1;" edge="1" parent="1" source="-oH_MTTWacPpwMCkbWbV-4" target="-oH_MTTWacPpwMCkbWbV-12">
          <mxGeometry relative="1" as="geometry" />
        </mxCell>
        <mxCell id="-oH_MTTWacPpwMCkbWbV-4" value="i = 0" style="rounded=0;whiteSpace=wrap;html=1;" vertex="1" parent="1">
          <mxGeometry x="395" y="-970" width="120" height="60" as="geometry" />
        </mxCell>
        <mxCell id="-oH_MTTWacPpwMCkbWbV-5" value="" style="edgeStyle=orthogonalEdgeStyle;rounded=0;orthogonalLoop=1;jettySize=auto;html=1;" edge="1" parent="1" source="-oH_MTTWacPpwMCkbWbV-9">
          <mxGeometry relative="1" as="geometry">
            <mxPoint x="455" y="-620" as="targetPoint" />
          </mxGeometry>
        </mxCell>
        <mxCell id="-oH_MTTWacPpwMCkbWbV-6" value="Não" style="edgeLabel;html=1;align=center;verticalAlign=middle;resizable=0;points=[];" vertex="1" connectable="0" parent="-oH_MTTWacPpwMCkbWbV-5">
          <mxGeometry x="-0.64" y="-1" relative="1" as="geometry">
            <mxPoint as="offset" />
          </mxGeometry>
        </mxCell>
        <mxCell id="-oH_MTTWacPpwMCkbWbV-7" style="edgeStyle=orthogonalEdgeStyle;rounded=0;orthogonalLoop=1;jettySize=auto;html=1;entryX=0;entryY=0.5;entryDx=0;entryDy=0;" edge="1" parent="1" source="-oH_MTTWacPpwMCkbWbV-9">
          <mxGeometry relative="1" as="geometry">
            <mxPoint x="660" y="-710" as="targetPoint" />
          </mxGeometry>
        </mxCell>
        <mxCell id="-oH_MTTWacPpwMCkbWbV-8" value="Sim" style="edgeLabel;html=1;align=center;verticalAlign=middle;resizable=0;points=[];" vertex="1" connectable="0" parent="-oH_MTTWacPpwMCkbWbV-7">
          <mxGeometry x="-0.0312" relative="1" as="geometry">
            <mxPoint as="offset" />
          </mxGeometry>
        </mxCell>
        <mxCell id="-oH_MTTWacPpwMCkbWbV-9" value="i&amp;nbsp; = superior?" style="shape=hexagon;perimeter=hexagonPerimeter2;whiteSpace=wrap;html=1;fixedSize=1;" vertex="1" parent="1">
          <mxGeometry x="395" y="-750" width="120" height="80" as="geometry" />
        </mxCell>
        <mxCell id="-oH_MTTWacPpwMCkbWbV-10" value="Fim" style="rounded=1;whiteSpace=wrap;html=1;fontSize=12;glass=0;strokeWidth=1;shadow=0;" vertex="1" parent="1">
          <mxGeometry x="660" y="-730" width="60" height="40" as="geometry" />
        </mxCell>
        <mxCell id="-oH_MTTWacPpwMCkbWbV-19" value="" style="edgeStyle=orthogonalEdgeStyle;rounded=0;orthogonalLoop=1;jettySize=auto;html=1;" edge="1" parent="1" source="-oH_MTTWacPpwMCkbWbV-12" target="-oH_MTTWacPpwMCkbWbV-9">
          <mxGeometry relative="1" as="geometry" />
        </mxCell>
        <mxCell id="-oH_MTTWacPpwMCkbWbV-12" value="&lt;div&gt;&lt;br&gt;&lt;/div&gt;&lt;div&gt;Ler superior&lt;/div&gt;" style="shape=manualInput;whiteSpace=wrap;html=1;" vertex="1" parent="1">
          <mxGeometry x="390" y="-870" width="130" height="60" as="geometry" />
        </mxCell>
        <mxCell id="-oH_MTTWacPpwMCkbWbV-22" value="" style="edgeStyle=orthogonalEdgeStyle;rounded=0;orthogonalLoop=1;jettySize=auto;html=1;" edge="1" parent="1" source="-oH_MTTWacPpwMCkbWbV-18" target="-oH_MTTWacPpwMCkbWbV-21">
          <mxGeometry relative="1" as="geometry" />
        </mxCell>
        <mxCell id="-oH_MTTWacPpwMCkbWbV-18" value="i = i + 1" style="whiteSpace=wrap;html=1;" vertex="1" parent="1">
          <mxGeometry x="395" y="-614" width="120" height="60" as="geometry" />
        </mxCell>
        <mxCell id="-oH_MTTWacPpwMCkbWbV-27" style="edgeStyle=orthogonalEdgeStyle;rounded=0;orthogonalLoop=1;jettySize=auto;html=1;entryX=0.5;entryY=1;entryDx=0;entryDy=0;" edge="1" parent="1" source="-oH_MTTWacPpwMCkbWbV-20" target="-oH_MTTWacPpwMCkbWbV-25">
          <mxGeometry relative="1" as="geometry" />
        </mxCell>
        <mxCell id="-oH_MTTWacPpwMCkbWbV-20" value="i" style="shape=display;whiteSpace=wrap;html=1;" vertex="1" parent="1">
          <mxGeometry x="415" y="-360" width="80" height="40" as="geometry" />
        </mxCell>
        <mxCell id="-oH_MTTWacPpwMCkbWbV-23" value="" style="edgeStyle=orthogonalEdgeStyle;rounded=0;orthogonalLoop=1;jettySize=auto;html=1;" edge="1" parent="1" source="-oH_MTTWacPpwMCkbWbV-21" target="-oH_MTTWacPpwMCkbWbV-20">
          <mxGeometry relative="1" as="geometry" />
        </mxCell>
        <mxCell id="-oH_MTTWacPpwMCkbWbV-24" value="Falso" style="edgeLabel;html=1;align=center;verticalAlign=middle;resizable=0;points=[];" vertex="1" connectable="0" parent="-oH_MTTWacPpwMCkbWbV-23">
          <mxGeometry x="-0.4" y="-2" relative="1" as="geometry">
            <mxPoint as="offset" />
          </mxGeometry>
        </mxCell>
        <mxCell id="-oH_MTTWacPpwMCkbWbV-26" style="edgeStyle=orthogonalEdgeStyle;rounded=0;orthogonalLoop=1;jettySize=auto;html=1;" edge="1" parent="1" source="-oH_MTTWacPpwMCkbWbV-21" target="-oH_MTTWacPpwMCkbWbV-25">
          <mxGeometry relative="1" as="geometry" />
        </mxCell>
        <mxCell id="-oH_MTTWacPpwMCkbWbV-28" value="Verdadeiro" style="edgeLabel;html=1;align=center;verticalAlign=middle;resizable=0;points=[];" vertex="1" connectable="0" parent="-oH_MTTWacPpwMCkbWbV-26">
          <mxGeometry x="-0.1478" y="1" relative="1" as="geometry">
            <mxPoint as="offset" />
          </mxGeometry>
        </mxCell>
        <mxCell id="-oH_MTTWacPpwMCkbWbV-21" value="i % 2 = 0" style="rhombus;whiteSpace=wrap;html=1;" vertex="1" parent="1">
          <mxGeometry x="415" y="-500" width="80" height="80" as="geometry" />
        </mxCell>
        <mxCell id="-oH_MTTWacPpwMCkbWbV-29" style="edgeStyle=orthogonalEdgeStyle;rounded=0;orthogonalLoop=1;jettySize=auto;html=1;entryX=0;entryY=0.5;entryDx=0;entryDy=0;" edge="1" parent="1" source="-oH_MTTWacPpwMCkbWbV-25" target="-oH_MTTWacPpwMCkbWbV-9">
          <mxGeometry relative="1" as="geometry">
            <Array as="points">
              <mxPoint x="280" y="-710" />
            </Array>
          </mxGeometry>
        </mxCell>
        <mxCell id="-oH_MTTWacPpwMCkbWbV-25" value="" style="ellipse;whiteSpace=wrap;html=1;aspect=fixed;" vertex="1" parent="1">
          <mxGeometry x="260" y="-480" width="40" height="40" as="geometry" />
        </mxCell>
      </root>
    </mxGraphModel>
  </diagram>
</mxfile>
